# xmcd CD database file
#
# Track frame offsets:
#	150
#	17468
#	42465
#	62340
#	89558
#	107955
#	137528
#	154203
#	168328
#	194848
#	210298
#	224230
#	236953
#	258095
#	283235
#
# Disc length: 3984 seconds
#
# Revision: 0
# Processed by: cddbd v1.5.1PL0 Copyright (c) Steve Scherf et al.
# Submitted via: CDex 1.50Beta7
#
DISCID=e30f8e0f
DTITLE=COUNT BASIE - THE VERY BEST OF THE COUNT BASIE BIG BAND AND FRIENDS
DYEAR=2004
DGENRE=Jazz
TTITLE0=STRIKE UP THE BAND
TTITLE1=MOTEN SWING
TTITLE2=WAY OUT BASIE
TTITLE3=SATIN DOLL
TTITLE4=YA GOTTA TRY
TTITLE5=TOLD YOU SO
TTITLE6=ORANGE SHERBET
TTITLE7=THE WIND MACHINE
TTITLE8=SHINY STOCKINGS
TTITLE9=JUST FRIENDS
TTITLE10=SWEET GEORGIA BROWN
TTITLE11=THE HEAT'S ON
TTITLE12=BASIE
TTITLE13=L'LL DARLIN'
TTITLE14=ONE O'CLOCK JUMP
EXTD=YEAR: 2004
EXTT0=
EXTT1=
EXTT2=
EXTT3=
EXTT4=
EXTT5=
EXTT6=
EXTT7=
EXTT8=
EXTT9=
EXTT10=
EXTT11=
EXTT12=
EXTT13=
EXTT14=
PLAYORDER=
